<svg xmlns="http://www.w3.org/2000/svg" viewBox="0 0 1200 900" role="img" aria-labelledby="title desc">
  <title id="title">Urban photography sample</title>
  <desc id="desc">A stylized rainy street photograph with windows and reflected light.</desc>
  <defs>
    <linearGradient id="sky" x1="0" x2="1" y1="0" y2="1">
      <stop offset="0" stop-color="#20333b"/>
      <stop offset="1" stop-color="#7d715f"/>
    </linearGradient>
    <filter id="soft"><feGaussianBlur stdDeviation="2"/></filter>
  </defs>
  <rect width="1200" height="900" fill="url(#sky)"/>
  <path d="M0 648c209-56 390-66 565-35 223 40 402 16 635-51v338H0z" fill="#1f2625"/>
  <g opacity=".76">
    <rect x="70" y="120" width="180" height="520" fill="#192428"/>
    <rect x="320" y="70" width="225" height="570" fill="#26343a"/>
    <rect x="630" y="145" width="160" height="455" fill="#1a2427"/>
    <rect x="865" y="96" width="240" height="535" fill="#303a38"/>
  </g>
  <g fill="#d9a64c" opacity=".82" filter="url(#soft)">
    <rect x="112" y="185" width="42" height="62"/>
    <rect x="177" y="292" width="42" height="62"/>
    <rect x="372" y="152" width="56" height="78"/>
    <rect x="463" y="284" width="56" height="78"/>
    <rect x="673" y="220" width="44" height="70"/>
    <rect x="924" y="172" width="62" height="82"/>
    <rect x="1017" y="342" width="62" height="82"/>
  </g>
  <g stroke="#cfb27a" stroke-width="5" opacity=".34">
    <path d="M140 660l-74 196"/>
    <path d="M414 643L328 900"/>
    <path d="M926 620L1086 900"/>
  </g>
  <path d="M0 704c198-42 398-44 600-8 205 37 397 27 600-30" fill="none" stroke="#b9c0b6" stroke-width="16" opacity=".28"/>
</svg>
