<svg xmlns="http://www.w3.org/2000/svg" viewBox="0 0 900 1100" role="img" aria-labelledby="title desc">
  <title id="title">Expressive floral painting</title>
  <desc id="desc">A colorful floral painting with layered brush marks.</desc>
  <rect width="900" height="1100" fill="#f1ddbd"/>
  <path d="M54 740c214-198 463-271 792-214v574H54z" fill="#496b57"/>
  <g fill="none" stroke-linecap="round" stroke-width="28" opacity=".82">
    <path d="M443 947c-10-156 10-311 59-463" stroke="#284537"/>
    <path d="M285 938c25-138 82-271 172-399" stroke="#365f43"/>
    <path d="M624 924c-38-142-34-276 12-403" stroke="#31513f"/>
  </g>
  <g>
    <path d="M393 331c66-133 206-128 235-12 31 124-107 220-207 131-38-34-48-77-28-119z" fill="#bf463f"/>
    <path d="M253 468c-62-106 6-218 112-196 115 24 124 177 24 233-54 30-107 17-136-37z" fill="#d58a45"/>
    <path d="M594 492c69-95 195-60 195 47 0 115-146 162-211 71-28-39-23-80 16-118z" fill="#dfc14f"/>
    <path d="M414 610c-26-112 80-195 171-140 98 59 55 204-54 213-59 5-103-24-117-73z" fill="#883f7b"/>
  </g>
  <g fill="#f3d9c6" opacity=".45">
    <circle cx="491" cy="374" r="64"/>
    <circle cx="337" cy="408" r="46"/>
    <circle cx="674" cy="555" r="42"/>
    <circle cx="506" cy="575" r="48"/>
  </g>
  <g stroke="#fff5e1" stroke-width="16" stroke-linecap="round" opacity=".35">
    <path d="M238 174c76-36 163-48 260-36"/>
    <path d="M629 208c64 13 112 41 145 84"/>
    <path d="M96 627c110-77 232-125 367-143"/>
  </g>
</svg>
