<svg xmlns="http://www.w3.org/2000/svg" viewBox="0 0 900 1100" role="img" aria-labelledby="title desc">
  <title id="title">Abstract painting</title>
  <desc id="desc">An abstract painting with layered color fields and brush texture.</desc>
  <rect width="900" height="1100" fill="#e8d3af"/>
  <path d="M0 132c158-86 313-102 464-48 167 59 312 46 436-39v394c-134 79-282 91-444 37C287 420 135 446 0 554z" fill="#456f89"/>
  <path d="M0 468c119-54 241-62 367-23 173 54 351 35 533-57v414c-168 94-346 111-533 53C226 811 104 829 0 909z" fill="#b85f47"/>
  <path d="M0 779c155-37 302-25 441 37 144 64 297 80 459 47v237H0z" fill="#6f8467"/>
  <g fill="none" stroke="#f4e8c8" stroke-linecap="round" opacity=".5">
    <path d="M84 243c188-65 354-59 499 18" stroke-width="26"/>
    <path d="M232 637c147-45 305-41 473 13" stroke-width="20"/>
    <path d="M101 928c194-34 389-14 585 60" stroke-width="22"/>
  </g>
  <g fill="#d7a747" opacity=".72">
    <circle cx="202" cy="328" r="62"/>
    <circle cx="681" cy="515" r="88"/>
    <circle cx="418" cy="879" r="74"/>
  </g>
</svg>
