<svg xmlns="http://www.w3.org/2000/svg" viewBox="0 0 1000 1200" role="img" aria-labelledby="title desc">
  <title id="title">Minimal line drawing</title>
  <desc id="desc">A minimal table still life drawn with black ink lines.</desc>
  <rect width="1000" height="1200" fill="#f6efe4"/>
  <g fill="none" stroke="#211a15" stroke-linecap="round" stroke-linejoin="round">
    <path d="M157 744c214 28 449 27 704-5" stroke-width="14"/>
    <path d="M237 747l-48 310M777 742l67 307" stroke-width="12"/>
    <path d="M374 464c-2 87 31 143 99 168 75-33 110-91 105-174-67-24-135-23-204 6z" stroke-width="13"/>
    <path d="M425 413c45-46 92-45 141 1" stroke-width="13"/>
    <path d="M620 543c77-38 134-21 170 51-33 59-91 84-171 74" stroke-width="13"/>
    <path d="M297 629c-55-84-47-161 26-232 75 12 113 70 115 174" stroke-width="13"/>
    <path d="M229 315c113-54 245-78 394-73" stroke-width="9" opacity=".45"/>
    <path d="M650 293c63 7 115 25 156 53" stroke-width="9" opacity=".45"/>
  </g>
  <g fill="#b85f47">
    <circle cx="371" cy="679" r="18"/>
    <circle cx="602" cy="702" r="14"/>
    <circle cx="738" cy="632" r="12"/>
  </g>
</svg>
