<svg xmlns="http://www.w3.org/2000/svg" viewBox="0 0 900 1200" role="img" aria-labelledby="title desc">
  <title id="title">Charcoal portrait study</title>
  <desc id="desc">A textured charcoal-style portrait on warm paper.</desc>
  <defs>
    <filter id="grain">
      <feTurbulence type="fractalNoise" baseFrequency="0.9" numOctaves="3" seed="4"/>
      <feColorMatrix type="saturate" values="0"/>
      <feComponentTransfer><feFuncA type="table" tableValues="0 0.18"/></feComponentTransfer>
    </filter>
  </defs>
  <rect width="900" height="1200" fill="#efe5d5"/>
  <rect width="900" height="1200" filter="url(#grain)" opacity=".55"/>
  <path d="M286 860c-68-118-58-282 2-398 58-112 151-178 262-162 115 17 189 111 201 236 12 123-42 253-121 335-91 94-260 79-344-11z" fill="#2d2924" opacity=".82"/>
  <path d="M319 739c-32-106-12-241 63-311 72-67 171-74 244-15 82 66 93 199 66 292-31 107-112 181-207 181-79 0-139-49-166-147z" fill="#d0a98c"/>
  <path d="M358 500c52-79 155-93 232-49 52 30 87 84 97 151 25-112-18-229-127-269-91-33-183 8-233 90-31 52-43 109-37 178 12-38 31-74 68-101z" fill="#171410" opacity=".8"/>
  <path d="M382 654c44 20 85 19 126 2M568 650c38 15 73 11 104-8" stroke="#171410" stroke-width="18" stroke-linecap="round" opacity=".72"/>
  <path d="M523 650c-22 70-31 112-12 128 16 14 49 5 72-6" fill="none" stroke="#5d4033" stroke-width="14" stroke-linecap="round"/>
  <path d="M428 828c52 38 125 40 180-3" fill="none" stroke="#6b382d" stroke-width="16" stroke-linecap="round"/>
  <path d="M329 428c-32 39-55 87-68 144M704 433c39 66 54 144 43 224M382 926c75 48 188 45 264-9" fill="none" stroke="#12100d" stroke-width="18" stroke-linecap="round" opacity=".35"/>
</svg>
