<svg xmlns="http://www.w3.org/2000/svg" viewBox="0 0 1200 900" role="img" aria-labelledby="title desc">
  <title id="title">Profile portrait</title>
  <desc id="desc">A warm profile portrait in colored pencil style.</desc>
  <rect width="1200" height="900" fill="#eadbc7"/>
  <path d="M406 764c33-105 21-193-34-264-37-48-40-123-9-187 38-79 119-122 224-117 117 5 202 57 254 154 29 55 85 83 169 86-71 61-139 92-203 92-10 86-51 152-122 198-78 50-171 63-279 38z" fill="#bd7a5b"/>
  <path d="M610 235c125 37 193 122 204 255 61-3 124-20 188-52-62-14-106-43-132-85-54-91-127-144-219-158-78-12-147 1-207 39 50-10 105-10 166 1z" fill="#2b2520" opacity=".82"/>
  <path d="M737 406c-44 16-78 13-101-9" fill="none" stroke="#251b17" stroke-width="13" stroke-linecap="round"/>
  <path d="M792 516c-35 21-68 25-99 12" fill="none" stroke="#844b3b" stroke-width="12" stroke-linecap="round"/>
  <path d="M461 676c104 33 202 24 294-28" fill="none" stroke="#8e5543" stroke-width="18" stroke-linecap="round" opacity=".6"/>
  <path d="M229 790c246 38 492 39 740 4" fill="none" stroke="#6f8467" stroke-width="28" stroke-linecap="round" opacity=".55"/>
</svg>
